<?xml version="1.0" encoding="utf-8"?>
<!-- Generator: Adobe Illustrator 23.0.0, SVG Export Plug-In . SVG Version: 6.00 Build 0)  -->
<svg version="1.1" id="Layer_1" xmlns="http://www.w3.org/2000/svg" xmlns:xlink="http://www.w3.org/1999/xlink" x="0px" y="0px"
	 viewBox="0 0 512 570.9" style="enable-background:new 0 0 512 570.9;" xml:space="preserve">
<style type="text/css">
	.st0{fill:#6A2B6F;}
	.st1{fill:#EF895D;}
	.st2{enable-background:new    ;}
	.st3{fill:#FFFFFF;}
</style>
<title>print-server-logo</title>
<path class="st0" d="M448,192V77.3c0-8.5-3.4-16.6-9.4-22.6L393.4,9.4c-6-6-14.1-9.4-22.6-9.4H96C78.3,0,64,14.3,64,32v160
	c-35.3,0-64,28.7-64,64v112c0,8.8,7.2,16,16,16h48v96c0,17.7,14.3,32,32,32h320c17.7,0,32-14.3,32-32v-96h48c8.8,0,16-7.2,16-16V256
	C512,220.7,483.3,192,448,192z M384,448H128v-96h256V448z M384,224H128V64h192v48c0,8.8,7.2,16,16,16h48V224z M432,296
	c-13.3,0-24-10.7-24-24s10.7-24,24-24s24,10.7,24,24S445.3,296,432,296z"/>
<circle class="st1" cx="97" cy="473.9" r="97"/>
<g class="st2">
	<path class="st3" d="M25.5,466.5v-33.2h11.7c1.6,0,3,0.3,4.4,0.8c1.4,0.5,2.6,1.2,3.6,2.2s1.8,2,2.4,3.3c0.6,1.3,0.9,2.7,0.9,4.2
		c0,1.6-0.3,3-0.9,4.3c-0.6,1.3-1.4,2.4-2.4,3.3c-1,0.9-2.2,1.6-3.6,2.2c-1.4,0.5-2.8,0.8-4.4,0.8h-5.4v12.2H25.5z M37.2,448.4
		c1.6,0,2.9-0.5,3.7-1.4c0.8-0.9,1.3-2,1.3-3.2c0-0.6-0.1-1.2-0.3-1.7c-0.2-0.6-0.5-1-0.9-1.5c-0.4-0.4-0.9-0.7-1.6-1
		c-0.6-0.2-1.3-0.4-2.2-0.4h-5.5v9.1H37.2z"/>
	<path class="st3" d="M52.2,443.8h5.7v3.2h0.4c0.3-0.6,0.6-1.1,1.1-1.5c0.5-0.5,1-0.9,1.6-1.2c0.6-0.3,1.2-0.6,1.9-0.8
		c0.7-0.2,1.3-0.3,2-0.3c0.8,0,1.5,0.1,2.1,0.3c0.6,0.2,1.1,0.4,1.5,0.7l-1.6,5.4c-0.4-0.2-0.8-0.3-1.2-0.4c-0.4-0.1-1-0.2-1.6-0.2
		c-0.8,0-1.6,0.2-2.3,0.5c-0.7,0.3-1.3,0.8-1.7,1.4c-0.5,0.6-0.9,1.3-1.1,2.1c-0.3,0.8-0.4,1.7-0.4,2.6v11.2h-6.1V443.8z"/>
	<path class="st3" d="M74.4,440.7c-0.5,0-1-0.1-1.5-0.3c-0.5-0.2-0.9-0.5-1.3-0.8c-0.4-0.4-0.6-0.8-0.8-1.2c-0.2-0.5-0.3-1-0.3-1.5
		s0.1-1.1,0.3-1.5c0.2-0.5,0.5-0.9,0.8-1.2c0.4-0.4,0.8-0.6,1.3-0.8c0.5-0.2,1-0.3,1.5-0.3c1.1,0,2,0.4,2.8,1.1
		c0.8,0.8,1.2,1.7,1.2,2.8s-0.4,2-1.2,2.8C76.4,440.3,75.5,440.7,74.4,440.7z M71.4,466.5v-22.7h6.1v22.7H71.4z"/>
</g>
<g class="st2">
	<path class="st3" d="M88.7,446.7h0.4c0.7-1.1,1.7-2,2.9-2.7c1.2-0.7,2.6-1,4.1-1c1.4,0,2.7,0.2,3.8,0.7c1.1,0.5,2,1.1,2.7,2
		c0.7,0.8,1.2,1.9,1.6,3.1c0.4,1.2,0.5,2.5,0.5,4v13.8h-6.1v-13c0-1.6-0.4-2.8-1.1-3.6c-0.7-0.8-1.8-1.2-3.2-1.2
		c-0.8,0-1.6,0.2-2.2,0.5c-0.6,0.4-1.2,0.8-1.6,1.4c-0.4,0.6-0.8,1.3-1,2.1s-0.3,1.7-0.3,2.6v11.1H83v-22.7h5.7V446.7z"/>
</g>
<g class="st2">
	<path class="st3" d="M110.9,449h-4v-5.2h4v-6.9h6.1v6.9h5.6v5.2H117v9.1c0,0.5,0.1,1,0.2,1.5c0.1,0.5,0.3,0.9,0.6,1.2
		c0.4,0.5,1,0.8,1.9,0.8c0.5,0,0.9-0.1,1.3-0.2c0.3-0.1,0.6-0.3,0.9-0.4l1.7,5.3c-0.7,0.3-1.5,0.6-2.3,0.8c-0.8,0.2-1.7,0.3-2.7,0.3
		c-1.1,0-2.2-0.2-3.1-0.5c-0.9-0.4-1.7-0.9-2.3-1.5c-1.5-1.4-2.2-3.4-2.2-6.1V449z"/>
</g>
<g class="st2">
	<path class="st3" d="M35.6,508.7c-1.4,0-2.8-0.2-4.1-0.6c-1.3-0.4-2.5-1-3.6-1.8c-1.1-0.8-2-1.8-2.8-2.9c-0.8-1.2-1.4-2.5-1.9-4.1
		l5.9-2.3c0.4,1.7,1.2,3,2.3,4.1c1.1,1.1,2.5,1.6,4.3,1.6c0.6,0,1.3-0.1,1.9-0.3s1.1-0.4,1.6-0.7c0.5-0.3,0.9-0.7,1.1-1.2
		c0.3-0.5,0.4-1.1,0.4-1.7c0-0.6-0.1-1.2-0.3-1.7c-0.2-0.5-0.6-1-1.1-1.4c-0.5-0.4-1.2-0.8-2-1.3c-0.8-0.4-1.8-0.8-3-1.3l-2-0.7
		c-0.9-0.3-1.8-0.7-2.7-1.3c-0.9-0.5-1.7-1.2-2.5-1.9c-0.7-0.7-1.4-1.6-1.8-2.6c-0.5-1-0.7-2.1-0.7-3.4c0-1.3,0.3-2.5,0.8-3.6
		c0.5-1.1,1.2-2.1,2.2-3c0.9-0.8,2.1-1.5,3.4-2c1.3-0.5,2.8-0.7,4.4-0.7c1.7,0,3.1,0.2,4.3,0.7c1.2,0.4,2.3,1,3.1,1.7
		c0.8,0.7,1.5,1.5,2.1,2.3c0.5,0.8,0.9,1.6,1.2,2.4l-5.5,2.3c-0.3-0.9-0.9-1.8-1.7-2.5c-0.8-0.7-1.9-1.1-3.4-1.1
		c-1.4,0-2.5,0.3-3.4,0.9c-0.9,0.6-1.3,1.5-1.3,2.5c0,1,0.4,1.8,1.3,2.5c0.9,0.7,2.2,1.4,4.1,2l2.1,0.7c1.3,0.5,2.5,1,3.6,1.6
		c1.1,0.6,2,1.3,2.8,2.2c0.8,0.8,1.4,1.8,1.8,2.8s0.6,2.3,0.6,3.7c0,1.7-0.3,3.2-1,4.5c-0.7,1.3-1.6,2.3-2.7,3.1
		c-1.1,0.8-2.3,1.4-3.7,1.8C38.2,508.5,36.9,508.7,35.6,508.7z"/>
	<path class="st3" d="M72.9,502.5c-1.1,1.9-2.5,3.4-4.2,4.5c-1.8,1.1-3.9,1.7-6.5,1.7c-1.7,0-3.3-0.3-4.8-0.9
		c-1.5-0.6-2.7-1.4-3.8-2.5c-1.1-1.1-1.9-2.4-2.5-3.8s-0.9-3.1-0.9-4.8c0-1.6,0.3-3.2,0.9-4.7c0.6-1.5,1.4-2.7,2.5-3.8
		c1-1.1,2.3-2,3.7-2.6s3-1,4.7-1c1.8,0,3.4,0.3,4.9,0.9c1.4,0.6,2.6,1.4,3.6,2.5c1,1.1,1.7,2.3,2.2,3.8c0.5,1.5,0.7,3,0.7,4.7
		c0,0.2,0,0.4,0,0.6c0,0.2,0,0.4,0,0.5c0,0.2,0,0.3,0,0.5H56c0.1,0.9,0.4,1.7,0.8,2.4c0.4,0.7,0.9,1.2,1.4,1.7
		c0.6,0.4,1.2,0.8,1.9,1c0.7,0.2,1.4,0.3,2.1,0.3c1.4,0,2.5-0.3,3.5-1c0.9-0.6,1.6-1.4,2.2-2.4L72.9,502.5z M67.3,493.7
		c0-0.4-0.2-0.8-0.4-1.3s-0.6-1-1-1.4c-0.4-0.4-1-0.8-1.7-1.1c-0.7-0.3-1.5-0.4-2.4-0.4c-1.3,0-2.4,0.4-3.4,1.1s-1.7,1.8-2.1,3.1
		H67.3z"/>
</g>
<g class="st2">
	<path class="st3" d="M77.1,485.2h5.7v3.2h0.4c0.3-0.6,0.6-1.1,1.1-1.5c0.5-0.5,1-0.9,1.6-1.2c0.6-0.3,1.2-0.6,1.9-0.8
		c0.7-0.2,1.3-0.3,2-0.3c0.8,0,1.5,0.1,2.1,0.3c0.6,0.2,1.1,0.4,1.5,0.7l-1.6,5.4c-0.4-0.2-0.8-0.3-1.2-0.4c-0.4-0.1-1-0.2-1.6-0.2
		c-0.8,0-1.6,0.2-2.3,0.5c-0.7,0.3-1.3,0.8-1.7,1.4c-0.5,0.6-0.8,1.3-1.1,2.1c-0.3,0.8-0.4,1.7-0.4,2.6v11.2h-6.1V485.2z"/>
</g>
<g class="st2">
	<path class="st3" d="M94,485.2h6.9l5.7,14.5h0.3l5.7-14.5h6.9l-9.8,22.7h-6L94,485.2z"/>
</g>
<g class="st2">
	<path class="st3" d="M143,502.5c-1.1,1.9-2.5,3.4-4.2,4.5c-1.8,1.1-3.9,1.7-6.5,1.7c-1.7,0-3.3-0.3-4.8-0.9
		c-1.5-0.6-2.7-1.4-3.8-2.5c-1.1-1.1-1.9-2.4-2.5-3.8s-0.9-3.1-0.9-4.8c0-1.6,0.3-3.2,0.9-4.7c0.6-1.5,1.4-2.7,2.5-3.8
		c1-1.1,2.3-2,3.7-2.6s3-1,4.7-1c1.8,0,3.4,0.3,4.9,0.9c1.4,0.6,2.6,1.4,3.6,2.5c1,1.1,1.7,2.3,2.2,3.8c0.5,1.5,0.7,3,0.7,4.7
		c0,0.2,0,0.4,0,0.6c0,0.2,0,0.4,0,0.5c0,0.2,0,0.3,0,0.5h-17.1c0.1,0.9,0.4,1.7,0.8,2.4c0.4,0.7,0.9,1.2,1.4,1.7
		c0.6,0.4,1.2,0.8,1.9,1c0.7,0.2,1.4,0.3,2.1,0.3c1.4,0,2.5-0.3,3.5-1c0.9-0.6,1.6-1.4,2.2-2.4L143,502.5z M137.5,493.7
		c0-0.4-0.2-0.8-0.4-1.3s-0.6-1-1-1.4c-0.4-0.4-1-0.8-1.7-1.1c-0.7-0.3-1.5-0.4-2.4-0.4c-1.3,0-2.4,0.4-3.4,1.1s-1.7,1.8-2.1,3.1
		H137.5z"/>
</g>
<g class="st2">
	<path class="st3" d="M147.3,485.2h5.7v3.2h0.4c0.3-0.6,0.6-1.1,1.1-1.5c0.5-0.5,1-0.9,1.6-1.2c0.6-0.3,1.2-0.6,1.9-0.8
		c0.7-0.2,1.3-0.3,2-0.3c0.8,0,1.5,0.1,2.1,0.3c0.6,0.2,1.1,0.4,1.5,0.7l-1.6,5.4c-0.4-0.2-0.8-0.3-1.2-0.4c-0.4-0.1-1-0.2-1.6-0.2
		c-0.8,0-1.6,0.2-2.3,0.5c-0.7,0.3-1.3,0.8-1.7,1.4c-0.5,0.6-0.9,1.3-1.1,2.1c-0.3,0.8-0.4,1.7-0.4,2.6v11.2h-6.1V485.2z"/>
</g>
<g class="st2">
	<path class="st3" d="M165.6,507.9c-1.1,0-2.1-0.4-2.8-1.1c-0.8-0.8-1.2-1.7-1.2-2.8c0-1.1,0.4-2,1.2-2.7c0.8-0.7,1.7-1.1,2.8-1.1
		c1.1,0,2.1,0.4,2.8,1.1c0.8,0.7,1.2,1.7,1.2,2.7c0,1.1-0.4,2-1.2,2.8C167.7,507.5,166.8,507.9,165.6,507.9z"/>
</g>
</svg>
