<svg id="Layer_1" data-name="Layer 1" xmlns="http://www.w3.org/2000/svg" viewBox="0 0 512 570.93"><defs><style>.cls-1{fill:#6a2b6f;}.cls-2{fill:#ef895d;}.cls-3{font-size:46.32px;fill:#fff;font-family:ProductSans-Bold, Product Sans;font-weight:700;}.cls-4{letter-spacing:-0.02em;}.cls-5{letter-spacing:0em;}.cls-6{letter-spacing:0.01em;}.cls-7{letter-spacing:-0.01em;}.cls-8{letter-spacing:-0.09em;}</style></defs><title>print-server-logo</title><path class="cls-1" d="M448,192V77.25a32,32,0,0,0-9.37-22.63L393.37,9.37A32,32,0,0,0,370.74,0H96A32,32,0,0,0,64,32V192A64,64,0,0,0,0,256V368a16,16,0,0,0,16,16H64v96a32,32,0,0,0,32,32H416a32,32,0,0,0,32-32V384h48a16,16,0,0,0,16-16V256A64,64,0,0,0,448,192ZM384,448H128V352H384Zm0-224H128V64H320v48a16,16,0,0,0,16,16h48Zm48,72a24,24,0,1,1,24-24A24,24,0,0,1,432,296Z"/><circle class="cls-2" cx="97" cy="473.93" r="97"/><text class="cls-3" transform="translate(22.14 466.47)">Pri<tspan class="cls-4" x="58.27" y="0">n</tspan><tspan class="cls-5" x="83.7" y="0">t</tspan><tspan x="0" y="41.46">Se</tspan><tspan class="cls-6" x="52.39" y="41.46">r</tspan><tspan class="cls-7" x="71.71" y="41.46">v</tspan><tspan class="cls-5" x="96.81" y="41.46">e</tspan><tspan class="cls-8" x="122.57" y="41.46">r</tspan><tspan x="137.25" y="41.46">.</tspan></text></svg>